<?xml version="1.0" encoding="UTF-8"?>
<svg version="1.1" viewBox="0 0 24 24" xmlns="http://www.w3.org/2000/svg">
<path d="m1.6389 23.921c0-0.0647 0.05719-0.0994 0.16364-0.0994 0.19844 0 0.17672 0.14877-0.026077 0.17861-0.091358 0.0134-0.13757-0.0132-0.13757-0.0792zm2.9773-0.40512c0-0.0963 0.11683-0.20037 0.43141-0.38409 0.23727-0.13858 0.50883-0.27139 0.60346-0.29514 0.09463-0.0238 0.2008-0.0969 0.23595-0.16259 0.07759-0.14497 0.222-0.15571 0.27393-0.0204 0.09186 0.23937-0.42038 0.81134-0.7846 0.87609-0.71364 0.12686-0.76015 0.12601-0.76015-0.0139zm-0.73743-0.15145c-0.25694-0.35025-0.27888-0.76418-0.042276-0.79785 0.11257-0.016 0.15255 0.0261 0.2115 0.22285 0.1228 0.40986 0.0045 0.8118-0.16922 0.575zm-3.7601-0.49081c0-0.11139 0.2587-0.21229 0.33884-0.13215 0.053572 0.0536 0.047813 0.087-0.022637 0.13159-0.12348 0.0781-0.3162 0.0784-0.3162 5.6e-4zm8.5651-0.9643c-0.11885-0.11884-0.09119-0.18901 0.06572-0.16673 0.07839 0.0111 0.14253 0.0606 0.14253 0.10999 0 0.1206-0.11347 0.15152-0.20825 0.0567zm-7.0972-0.15657c0.026697-0.13862 0.21076-0.15824 0.21076-0.0225 0 0.0518-0.052474 0.10425-0.11661 0.1166-0.084655 0.0163-0.11045-0.01-0.094151-0.0941zm2.4569-0.63041c-0.084824-0.2231-0.059393-0.33776 0.098066-0.44211 0.086097-0.0571 0.15758-0.0645 0.22171-0.0229 0.080103 0.0519 0.071604 0.0791-0.055312 0.17754-0.1081 0.0838-0.13832 0.15292-0.10828 0.24759 0.063587 0.20034-0.08113 0.23734-0.15619 0.0399zm3.5496-0.0801c-0.37224-0.12188-0.60173-0.31575-1.7845-1.5075-0.82478-0.83104-1.2638-1.3202-1.2977-1.446-0.092713-0.34382-0.053644-0.81203 0.092598-1.1097 0.079164-0.16113 0.66142-0.8455 1.3464-1.5825 0.66378-0.71423 1.2553-1.4029 1.3144-1.5303 0.1218-0.26249 6.8731-7.4423 7.0513-7.4988 0.06304-0.02 1.4334-1.4601 3.0453-3.2001l2.9306-3.1638h2.9564l-1.0091 1.1244c-4.8859 5.4443-6.2219 6.9611-6.2056 7.0453 0.04767 0.24752-0.2158 0.53041 6.7113-7.2059 0.41444-0.46286 0.73653-0.86906 0.71575-0.90268-0.02216-0.03585 0.08162-0.06112 0.25102-0.06112h0.2888v1.9596c0 1.0778-0.02603 2.0256-0.05784 2.1062-0.04324 0.10963-3.204 3.6238-5.2187 5.8023-0.07352 0.0795-0.13498 0.21435-0.13658 0.29969-0.0021 0.11391-0.91226 1.1639-3.4236 3.9498-1.8814 2.087-3.4957 3.8336-3.5874 3.8811-0.0917 0.0476-0.69198 0.67088-1.334 1.3851-0.88985 0.98998-1.2457 1.3411-1.4975 1.4775-0.34965 0.18943-0.86975 0.26953-1.1513 0.17733zm4.1048-3.7522c0.16399-0.17802 0.29816-0.35834 0.29816-0.40071 0-0.0424-0.2905-0.31071-0.64556-0.59631-0.77221-0.62114-2.1284-1.9515-2.6451-2.5946l-0.37192-0.46294-0.33829 0.33409c-0.18606 0.18375-0.33829 0.38892-0.33829 0.45593 0 0.42352 3.2524 3.5882 3.6876 3.5882 0.03037 0 0.18939-0.14566 0.35338-0.32368zm0.74317-0.81831c0.11444-0.12645 0.10891-0.13501-0.35442-0.54958-0.90211-0.80717-2.3848-2.4358-2.7977-3.0729-0.10805-0.16675-0.23146-0.30318-0.27425-0.30318-0.04278 0-0.16703 0.10164-0.2761 0.22587l-0.19832 0.22587 0.14424 0.26474c0.32597 0.59828 3.2294 3.3376 3.5376 3.3376 0.0565 0 0.15504-0.0578 0.21898-0.12846zm0.48587-0.54852c0.09772-0.0936 0.1758-0.21477 0.17352-0.26922-0.0023-0.0545-0.17722-0.23365-0.38875-0.39821-0.84888-0.66039-2.2911-2.0964-3.0081-2.995l-0.202-0.25318-0.13956 0.13745-0.13956 0.13744 0.16286 0.2743c0.31604 0.5323 1.0329 1.3634 2.1082 2.4439 0.59804 0.60099 1.1252 1.0927 1.1715 1.0927 0.04631 0 0.16414-0.0766 0.26186-0.17021zm1.4903-1.6358c0.54973-0.61004 0.9995-1.1332 0.9995-1.1626s-0.22804-0.23462-0.50677-0.45604c-0.64852-0.51519-2.0664-1.8991-2.6498-2.5863l-0.45174-0.5321-1.0287 1.0702c-0.56576 0.58863-1.0295 1.1231-1.0306 1.1878-0.0023 0.14415 0.24185 0.45876 0.96388 1.2419 0.8982 0.97427 2.4344 2.3461 2.6273 2.3462 0.04256 2e-5 0.52715-0.49909 1.0769-1.1091zm1.416-1.5899 0.15357-0.16526-0.15726-0.10395c-0.7435-0.49149-2.3327-2.0562-2.9868-2.9408-0.21168-0.28627-0.39597-0.53219-0.40953-0.54649-0.03472-0.0366-0.27822 0.19158-0.35249 0.33036-0.04916 0.0919-0.0064 0.19004 0.20696 0.4758 0.58 0.77665 3.0735 3.1156 3.3214 3.1156 0.0388 0 0.13965-0.0744 0.22412-0.16527zm0.47361-0.51223c0.10095-0.10094 0.09647-0.11646-0.07466-0.25883-1.3853-1.1525-2.832-2.6776-3.2523-3.4286-0.04862-0.0869-0.07035-0.0844-0.1869 0.0211-0.18224 0.16492-0.16838 0.24297 0.11806 0.66477 0.52055 0.76654 1.812 2.0878 2.7805 2.8447 0.37484 0.29293 0.45805 0.31415 0.61525 0.15695zm0.94829-1.04c0.31278-0.35236 0.5772-0.67651 0.5876-0.72033 0.0104-0.0438-0.12024-0.17964-0.29031-0.30182-0.7476-0.5371-2.427-2.1052-2.931-2.7368-0.15417-0.19321-0.32352-0.35128-0.37633-0.35128-0.05282 0-0.33122 0.25763-0.61868 0.57251l-0.52265 0.57251 0.10463 0.20348c0.40738 0.79223 2.9773 3.4024 3.3499 3.4024 0.08266 1e-5 0.32989-0.2273 0.6968-0.64064z" fill="#0d0d0d" stroke-width=".063346"/>
</svg>

