<?xml version="1.0" encoding="UTF-8"?>
<svg
    version="1.1"
    viewBox="0 0 24 24"
    xmlns="http://www.w3.org/2000/svg"
>
<path
    d="m0.35114 19.946c-0.32007-0.08295-0.41345-0.48137-0.31217-1.3317 0.050188-0.42133 0.15056-1.6146 0.22305-2.6517 0.072488-1.0371 0.2612-3.2116 0.41934-4.8321 0.15815-1.6205 0.31877-3.2663 0.35693-3.6573 0.038159-0.39098 0.11131-0.77873 0.16254-0.86163 0.051238-0.0829 0.34873-0.18729 0.6611-0.23197 0.5565-0.0796 0.57049-0.0919 0.69575-0.61097 0.12316-0.51046 0.14772-0.53333 0.67498-0.62916 0.48582-0.08828 0.55528-0.13994 0.61944-0.46078 0.039751-0.19875 0.13149-0.43271 0.20386-0.51993 0.19072-0.2298 1.2929-0.19932 2.6129 0.07227 1.4715 0.30277 2.354 0.60375 3.8399 1.3095 0.67273 0.31958 1.3588 0.58103 1.5245 0.58103 0.16571 0 0.6555-0.18329 1.0884-0.4073 1.888-0.97702 4.4641-1.7141 5.9907-1.7141 0.75689 0 0.91235 0.10168 1.0263 0.67122 0.06227 0.31134 0.13712 0.36695 0.61944 0.46019 0.52751 0.10197 0.55352 0.12646 0.67638 0.63642 0.07123 0.29569 0.2016 0.53992 0.29464 0.55197 0.79534 0.10302 1.0443 0.18585 1.0986 0.36551 0.08356 0.2765 0.73744 6.9667 0.90093 9.2181 0.07296 1.0047 0.17246 2.198 0.2211 2.6517 0.10797 1.0071 0.05865 1.2243-0.30969 1.3644-0.28679 0.10904-22.871 0.13452-23.289 0.02629zm8.4594-0.97268c0.20567-0.33278-2.6996-0.64765-5.1525-0.55841-1.7409 0.06334-1.8633 0.05364-1.9757-0.1565-0.083497-0.15601-0.050593-1.111 0.10838-3.1456 0.12555-1.6069 0.28826-3.7968 0.36158-4.8663 0.073317-1.0695 0.16359-2.1426 0.2006-2.3846 0.052512-0.34329 0.024089-0.45658-0.12931-0.51543-0.10814-0.0415-0.21813-0.05393-0.24442-0.02764-0.026296 0.0263-0.16074 1.319-0.29877 2.8725-0.13803 1.5536-0.37128 4.1242-0.51831 5.7123-0.17506 1.8908-0.22793 2.9383-0.15314 3.0348 0.1416 0.18266 7.6893 0.21648 7.8013 0.03496zm14.168-0.08039c0.04068-0.10601-0.04038-1.4186-0.18014-2.9169-0.13976-1.4983-0.33626-3.6788-0.43669-4.8457-0.10043-1.1669-0.21474-2.4842-0.25404-2.9275-0.04669-0.52674-0.12825-0.82794-0.23534-0.869-0.09014-0.03459-0.1919-0.03487-0.22615-6.26e-4 -0.03425 0.03425 0.01891 1.0882 0.11814 2.3422 0.09922 1.254 0.26436 3.4998 0.36696 4.9904 0.10261 1.4909 0.21237 2.8443 0.24391 3.0076 0.03154 0.16331-0.01474 0.39552-0.10284 0.51599-0.1469 0.20089-0.37942 0.22111-2.8025 0.24368-1.5099 0.01406-2.8948 0.08373-3.2316 0.16256-0.3241 0.07588-0.71078 0.16562-0.85928 0.19944-0.1485 0.03382-0.23818 0.11296-0.19929 0.17588 0.04336 0.07016 1.5506 0.1144 3.8977 0.1144 3.4339 0 3.8347-0.0198 3.901-0.19274zm-11.513-5.8895v-5.4932l-0.3241 0.07862c-0.61815 0.14994-1.3259 0.55385-1.3259 0.75667 0 0.10968 0.31821 0.51433 0.70713 0.89916 0.38892 0.38484 0.70713 0.74238 0.70713 0.79449 0 0.05211-0.96789 0.08028-2.1509 0.06262l-2.1509-0.03212-0.03243-1.9992c-0.01783-1.0996-0.0034-2.075 0.03218-2.1676 0.04567-0.11902 0.30603 0.06471 0.88841 0.62695l0.82381 0.79534 0.31239-0.20469c0.17182-0.11258 0.48932-0.30908 0.70559-0.43669s0.3932-0.27326 0.3932-0.3237c0-0.05043-0.26954-0.20765-0.59896-0.34937-1.8188-0.78245-4.5061-1.3257-4.6361-0.93725-0.08265 0.24715-0.65844 7.3638-0.74035 9.1507l-0.07159 1.5616h0.29861c0.16424 0 0.95419 0.16499 1.7555 0.36665 1.5642 0.39367 3.2801 1.1053 4.4833 1.8592 0.41098 0.25757 0.78702 0.47201 0.83563 0.47654 0.04861 0.0045 0.08839-2.4636 0.08839-5.4847zm2.0233 4.9882c1.8695-1.0924 3.6596-1.771 5.5926-2.1203l0.81081-0.14648 0.03678-0.7061c0.05597-1.0744-0.68441-9.8744-0.84418-10.034-0.17975-0.17937-1.4044-0.0092-2.7648 0.3841-1.057 0.30561-2.3795 0.84775-2.3795 0.9754 0 0.03988 0.2362 0.1978 0.52486 0.35095 0.78661 0.41732 1.4641 1.046 1.9691 1.8274 0.54438 0.8423 0.58077 1.2097 0.13653 1.3786-0.6524 0.24804-0.76098 0.20196-1.1742-0.49823-0.56449-0.95654-1.8225-1.8567-2.6054-1.8643l-0.26518-0.0026-0.0018 3.3883c-0.0011 1.8636-7e-3 4.2634-0.01339 5.333-0.01254 2.1126-0.0089 2.2393 0.06442 2.2393 0.02706 0 0.43809-0.22723 0.91338-0.50494zm-6.2132-0.54007c-0.2207-0.20144-1.2767-0.48428-2.2764-0.60972-1.7594-0.22076-1.7875-0.22816-1.9131-0.50376-0.083935-0.18422-0.013571-1.5048 0.24114-4.5253 0.37887-4.4932 0.43415-5.8088 0.24405-5.8088-0.18282 0-0.22573 0.3511-0.41776 3.4178-0.099437 1.5881-0.28012 4.0012-0.40152 5.3624-0.1214 1.3612-0.18483 2.5134-0.14096 2.5603 0.043872 0.04694 0.95356 0.10138 2.0216 0.12099 1.068 0.0196 2.1248 0.04749 2.3484 0.06198 0.23552 0.01525 0.35949-0.01667 0.29464-0.07586zm14.178-0.06629c0.01595-0.01485-0.10031-1.5608-0.25834-3.4354-0.15804-1.8746-0.34876-4.3897-0.42384-5.5889-0.07507-1.1992-0.16083-2.2201-0.19057-2.2687-0.02974-0.04862-0.11179-0.08839-0.18232-0.08839-0.17171 0-0.08141 1.7885 0.32963 6.5288l0.32597 3.7592-0.26979 0.21846c-0.17512 0.1418-0.46162 0.219-0.81655 0.22001-0.67307 0.0019-2.5832 0.38701-2.9985 0.60449-0.26434 0.13846 0.01511 0.15445 2.0749 0.11873 1.3092-0.0227 2.3934-0.05343 2.4094-0.06828z"
    stroke-width=".11786"/>
</svg>

