<?xml version="1.0" encoding="UTF-8"?>
<svg version="1.1" viewBox="0 0 24 24" xmlns="http://www.w3.org/2000/svg" xmlns:cc="http://creativecommons.org/ns#" xmlns:dc="http://purl.org/dc/elements/1.1/" xmlns:rdf="http://www.w3.org/1999/02/22-rdf-syntax-ns#">
<path d="m11.906 23.05c-0.03579-0.0184-0.0754-0.0517-0.08802-0.0741-0.01262-0.0223-0.15743-0.71111-0.32181-1.5306-0.24714-1.232-0.31026-1.5064-0.36464-1.5851-0.05292-0.0766-0.27507-0.98581-1.1372-4.6543l-1.0714-4.5591 0.02657-4.2199c0.01461-2.321 0.02678-4.6985 0.02704-5.2834l4.81e-4 -1.0635h0.31801l-0.02714 8.4674 0.06045 0.10161c0.03325 0.0559 0.06503 0.10161 0.07063 0.10161s0.03015-0.0386 0.05456-0.0859c0.04037-0.0781 0.0457-0.46969 0.05899-4.3353l0.01461-4.2495h2.6472l9.03e-4 4.3285c8.72e-4 4.1936 0.0025 4.3304 0.05176 4.3895 0.06236 0.0747 0.09938 0.077 0.13605 9e-3 0.019-0.0355 0.02805-1.4516 0.02805-4.3895l-1e-6 -4.3371h3.0419l-0.01697 0.94157c-0.0093 0.51787-0.02406 2.7035-0.03275 4.8569l-0.01577 3.9153-0.9744 4.9179c-0.53592 2.7048-0.9865 4.9542-1.0013 4.9987-0.01478 0.0445-0.06431 0.11944-0.11008 0.16666-0.07844 0.0809-0.10321 0.16944-0.43231 1.5449-0.19201 0.8025-0.36094 1.4859-0.37541 1.5186-0.04893 0.11075-0.42466 0.18312-0.56802 0.10939zm0.76482-3.2561c0.11178-0.0214 0.25216-0.0638 0.31196-0.0944 0.09748-0.0497 0.11175-0.0702 0.13791-0.1982 0.09177-0.44889 1.9799-9.9623 1.9799-9.9758 0-0.0494-0.09914 0.01-0.37047 0.22161-0.50622 0.39516-0.80139 0.5466-1.0656 0.54668-0.31421 9e-5 -0.53031-0.18372-1.0111-0.86002-0.16118-0.22673-0.30387-0.41224-0.3171-0.41224s-0.08024 0.10878-0.14891 0.24174c-0.21702 0.4202-0.57003 0.74341-0.95006 0.86988-0.14847 0.0495-0.22419 0.0578-0.44288 0.049-0.23316-0.01-0.28557-0.0213-0.45133-0.10251-0.2252-0.11037-0.50014-0.37348-0.63873-0.61126-0.05219-0.0895-0.13626-0.26634-0.18682-0.39289-0.05055-0.12654-0.09535-0.23516-0.09952-0.24137-0.01863-0.0277-0.04757 0.0452-0.1623 0.40905-0.21289 0.67505-0.30277 0.15983 0.97995 5.6175 0.60595 2.5782 1.1085 4.7154 1.1169 4.7495 0.03207 0.13116 0.34894 0.21713 0.8125 0.22044 0.16634 9.6e-4 0.3939-0.0153 0.50568-0.0367z" fill="#050505" stroke-width=".027096"/>
</svg>

