<?xml version="1.0" encoding="UTF-8"?>
<svg version="1.1" viewBox="0 0 24 24" xmlns="http://www.w3.org/2000/svg" xmlns:cc="http://creativecommons.org/ns#" xmlns:dc="http://purl.org/dc/elements/1.1/" xmlns:rdf="http://www.w3.org/1999/02/22-rdf-syntax-ns#">
<path d="m12.042 21.898c-0.19312-0.10119-0.41394-0.35324-0.4907-0.56012-0.47575-1.2822-0.91646-2.7545-1.6257-5.4312l-0.80367-3.033-0.07945-6.4367c-0.07626-6.1788-0.06956-6.4367 0.16748-6.4367 0.21243 0 0.25903 0.1554 0.33351 1.1121 0.04762 0.61166 0.09487 2.8712 0.105 5.0213 0.01014 2.1501 0.056 4.3642 0.10191 4.9202 0.08112 0.98243 0.093 1.0097 0.42048 0.96565 0.18535-0.02495 0.38612-0.09227 0.44616-0.1496s0.04677-1.7039-0.02951-3.6591c-0.08947-2.2938-0.09233-3.6012-8e-3 -3.6855 0.0736-0.07359 0.13061-1.0898 0.13061-2.3279v-2.1972h3.3571l0.08401 2.1905c0.04621 1.2048 0.0946 3.9193 0.10754 6.0323 0.02349 3.8364 0.02394 3.8419 0.31735 3.8836 0.38315 0.05455 0.41479-0.21081 0.51135-4.288 0.16474-6.9561 0.21941-7.8184 0.49563-7.8184 0.23028 0 0.24843 0.13172 0.23674 1.7187-7e-3 0.94529-0.09116 3.8418-0.1871 6.4367l-0.17444 4.718-0.77048 2.8308c-0.42376 1.5569-0.78178 2.9825-0.7956 3.1678-0.03155 0.42304-0.74374 2.5681-0.93113 2.8045-0.26896 0.33926-0.56002 0.40932-0.91904 0.22121zm0.83715-1.6103c0.13002-0.3707 0.24111-0.74334 0.24685-0.82808 0.01603-0.23644-0.35874-0.32654-0.95898-0.23056-0.53534 0.08561-0.54256 0.0943-0.47473 0.57278 0.20155 1.4218 0.77607 1.657 1.1869 0.48586zm0.82265-11.862c0.08411-3.0299 0.07131-3.387-0.12686-3.5385-0.25293-0.19336-2.0226-0.22823-2.3112-0.04554-0.15656 0.09914-0.17118 0.6741-0.08818 3.469 0.05471 1.8426 0.12904 3.3981 0.16518 3.4566s0.5611 0.08883 1.1666 0.06741l1.1009-0.03897z" fill="#1b1b1b" stroke-width=".1348"/>
</svg>

